<mxfile host="app.diagrams.net" modified="2021-05-05T08:49:07.413Z" agent="5.0 (Windows NT 10.0; Win64; x64) AppleWebKit/537.36 (KHTML, like Gecko) Chrome/89.0.4389.82 Safari/537.36" etag="3ZsywWuo1iMoE4u7YhYG" version="14.6.1" type="github">
  <diagram id="gPWRRkmIBSLixqdL957S" name="Page-1">
    <mxGraphModel dx="2048" dy="688" grid="1" gridSize="10" guides="1" tooltips="1" connect="1" arrows="1" fold="1" page="1" pageScale="1" pageWidth="827" pageHeight="1169" math="0" shadow="0">
      <root>
        <mxCell id="0" />
        <mxCell id="1" parent="0" />
        <mxCell id="sb-XSN0ztYntYfj7g1Nz-17" style="edgeStyle=orthogonalEdgeStyle;rounded=0;orthogonalLoop=1;jettySize=auto;html=1;exitX=0.5;exitY=1;exitDx=0;exitDy=0;entryX=0.5;entryY=0;entryDx=0;entryDy=0;" edge="1" parent="1" source="sb-XSN0ztYntYfj7g1Nz-1" target="sb-XSN0ztYntYfj7g1Nz-4">
          <mxGeometry relative="1" as="geometry" />
        </mxCell>
        <mxCell id="sb-XSN0ztYntYfj7g1Nz-1" value="&lt;font style=&quot;font-size: 14px&quot;&gt;os_021&lt;/font&gt;" style="ellipse;whiteSpace=wrap;html=1;aspect=fixed;" vertex="1" parent="1">
          <mxGeometry x="240" y="40" width="80" height="80" as="geometry" />
        </mxCell>
        <mxCell id="sb-XSN0ztYntYfj7g1Nz-2" value="&lt;font style=&quot;font-size: 14px&quot;&gt;os_022&lt;/font&gt;" style="ellipse;whiteSpace=wrap;html=1;aspect=fixed;" vertex="1" parent="1">
          <mxGeometry x="400" y="40" width="80" height="80" as="geometry" />
        </mxCell>
        <mxCell id="sb-XSN0ztYntYfj7g1Nz-3" value="&lt;span style=&quot;font-size: 14px&quot;&gt;docker_003&lt;/span&gt;" style="ellipse;whiteSpace=wrap;html=1;aspect=fixed;fillColor=#f5f5f5;strokeColor=#666666;fontColor=#333333;" vertex="1" parent="1">
          <mxGeometry x="80" y="180" width="80" height="80" as="geometry" />
        </mxCell>
        <mxCell id="sb-XSN0ztYntYfj7g1Nz-4" value="&lt;span style=&quot;font-size: 14px&quot;&gt;docker_004&lt;/span&gt;" style="ellipse;whiteSpace=wrap;html=1;aspect=fixed;fillColor=#f5f5f5;strokeColor=#666666;fontColor=#333333;" vertex="1" parent="1">
          <mxGeometry x="240" y="180" width="80" height="80" as="geometry" />
        </mxCell>
        <mxCell id="sb-XSN0ztYntYfj7g1Nz-5" value="&lt;span style=&quot;font-size: 14px&quot;&gt;docker_001&lt;/span&gt;" style="ellipse;whiteSpace=wrap;html=1;aspect=fixed;fillColor=#f5f5f5;strokeColor=#666666;fontColor=#333333;" vertex="1" parent="1">
          <mxGeometry x="400" y="180" width="80" height="80" as="geometry" />
        </mxCell>
        <mxCell id="sb-XSN0ztYntYfj7g1Nz-6" value="&lt;span style=&quot;font-size: 14px&quot;&gt;docker_002&lt;/span&gt;" style="ellipse;whiteSpace=wrap;html=1;aspect=fixed;fillColor=#f5f5f5;strokeColor=#666666;fontColor=#333333;" vertex="1" parent="1">
          <mxGeometry x="560" y="180" width="80" height="80" as="geometry" />
        </mxCell>
        <mxCell id="sb-XSN0ztYntYfj7g1Nz-7" value="&lt;span style=&quot;font-size: 14px&quot;&gt;docker_005&lt;/span&gt;" style="ellipse;whiteSpace=wrap;html=1;aspect=fixed;fillColor=#f5f5f5;strokeColor=#666666;fontColor=#333333;" vertex="1" parent="1">
          <mxGeometry x="-80" y="320" width="80" height="80" as="geometry" />
        </mxCell>
        <mxCell id="sb-XSN0ztYntYfj7g1Nz-8" value="&lt;span style=&quot;font-size: 14px&quot;&gt;docker_006&lt;/span&gt;" style="ellipse;whiteSpace=wrap;html=1;aspect=fixed;fillColor=#f5f5f5;strokeColor=#666666;fontColor=#333333;" vertex="1" parent="1">
          <mxGeometry x="80" y="320" width="80" height="80" as="geometry" />
        </mxCell>
        <mxCell id="sb-XSN0ztYntYfj7g1Nz-9" value="&lt;span style=&quot;font-size: 14px&quot;&gt;db_007&lt;/span&gt;" style="ellipse;whiteSpace=wrap;html=1;aspect=fixed;fillColor=#f5f5f5;strokeColor=#666666;fontColor=#333333;" vertex="1" parent="1">
          <mxGeometry x="240" y="320" width="80" height="80" as="geometry" />
        </mxCell>
        <mxCell id="sb-XSN0ztYntYfj7g1Nz-10" value="&lt;span style=&quot;font-size: 14px&quot;&gt;db_009&lt;/span&gt;" style="ellipse;whiteSpace=wrap;html=1;aspect=fixed;fillColor=#f5f5f5;strokeColor=#666666;fontColor=#333333;" vertex="1" parent="1">
          <mxGeometry x="400" y="320" width="80" height="80" as="geometry" />
        </mxCell>
        <mxCell id="sb-XSN0ztYntYfj7g1Nz-11" value="&lt;span style=&quot;font-size: 14px&quot;&gt;docker_007&lt;/span&gt;" style="ellipse;whiteSpace=wrap;html=1;aspect=fixed;fillColor=#f5f5f5;strokeColor=#666666;fontColor=#333333;" vertex="1" parent="1">
          <mxGeometry x="560" y="320" width="80" height="80" as="geometry" />
        </mxCell>
        <mxCell id="sb-XSN0ztYntYfj7g1Nz-12" value="&lt;span style=&quot;font-size: 14px&quot;&gt;docker_008&lt;/span&gt;" style="ellipse;whiteSpace=wrap;html=1;aspect=fixed;fillColor=#f5f5f5;strokeColor=#666666;fontColor=#333333;" vertex="1" parent="1">
          <mxGeometry x="720" y="320" width="80" height="80" as="geometry" />
        </mxCell>
        <mxCell id="sb-XSN0ztYntYfj7g1Nz-13" value="&lt;span style=&quot;font-size: 14px&quot;&gt;db_003&lt;/span&gt;" style="ellipse;whiteSpace=wrap;html=1;aspect=fixed;fillColor=#f5f5f5;strokeColor=#666666;fontColor=#333333;" vertex="1" parent="1">
          <mxGeometry x="320" y="460" width="80" height="80" as="geometry" />
        </mxCell>
        <mxCell id="sb-XSN0ztYntYfj7g1Nz-16" value="" style="endArrow=classic;html=1;exitX=0;exitY=1;exitDx=0;exitDy=0;entryX=1;entryY=0;entryDx=0;entryDy=0;" edge="1" parent="1" source="sb-XSN0ztYntYfj7g1Nz-1" target="sb-XSN0ztYntYfj7g1Nz-3">
          <mxGeometry width="50" height="50" relative="1" as="geometry">
            <mxPoint x="380" y="300" as="sourcePoint" />
            <mxPoint x="430" y="250" as="targetPoint" />
          </mxGeometry>
        </mxCell>
      </root>
    </mxGraphModel>
  </diagram>
</mxfile>
